<mxfile host="app.diagrams.net" agent="Mozilla/5.0 (Windows NT 10.0; Win64; x64) AppleWebKit/537.36 (KHTML, like Gecko) Chrome/126.0.0.0 Safari/537.36" version="24.7.4">
  <diagram id="j0LmelzG5dg16QH3oHH8" name="Page-1">
    <mxGraphModel dx="1118" dy="496" grid="0" gridSize="10" guides="1" tooltips="1" connect="1" arrows="1" fold="1" page="1" pageScale="1" pageWidth="850" pageHeight="1100" math="0" shadow="0">
      <root>
        <mxCell id="0" />
        <mxCell id="1" parent="0" />
        <mxCell id="Wplj2ACgxhErMLeJOONX-3" value="" style="edgeStyle=orthogonalEdgeStyle;rounded=0;orthogonalLoop=1;jettySize=auto;html=1;fontStyle=1" parent="1" source="I_5C5cWwlUB3rPTck1Bl-2" target="I_5C5cWwlUB3rPTck1Bl-5" edge="1">
          <mxGeometry relative="1" as="geometry" />
        </mxCell>
        <mxCell id="I_5C5cWwlUB3rPTck1Bl-2" value="Start" style="strokeWidth=1;html=1;shape=mxgraph.flowchart.terminator;whiteSpace=wrap;fontStyle=3" parent="1" vertex="1">
          <mxGeometry x="80" y="185" width="80" height="40" as="geometry" />
        </mxCell>
        <mxCell id="Wplj2ACgxhErMLeJOONX-5" value="" style="edgeStyle=orthogonalEdgeStyle;rounded=0;orthogonalLoop=1;jettySize=auto;html=1;fontStyle=1" parent="1" source="I_5C5cWwlUB3rPTck1Bl-3" target="I_5C5cWwlUB3rPTck1Bl-7" edge="1">
          <mxGeometry relative="1" as="geometry" />
        </mxCell>
        <mxCell id="I_5C5cWwlUB3rPTck1Bl-3" value="" style="verticalLabelPosition=bottom;verticalAlign=top;html=1;shape=hexagon;perimeter=hexagonPerimeter2;arcSize=6;size=0.27;fontStyle=1" parent="1" vertex="1">
          <mxGeometry x="200" y="190" width="80" height="30" as="geometry" />
        </mxCell>
        <mxCell id="I_5C5cWwlUB3rPTck1Bl-5" value="i = 0" style="text;html=1;align=center;verticalAlign=middle;whiteSpace=wrap;rounded=0;fontStyle=1" parent="1" vertex="1">
          <mxGeometry x="200" y="192.5" width="60" height="25" as="geometry" />
        </mxCell>
        <mxCell id="I_5C5cWwlUB3rPTck1Bl-6" value="" style="edgeStyle=orthogonalEdgeStyle;rounded=0;orthogonalLoop=1;jettySize=auto;html=1;fontStyle=1" parent="1" source="I_5C5cWwlUB3rPTck1Bl-7" target="I_5C5cWwlUB3rPTck1Bl-27" edge="1">
          <mxGeometry relative="1" as="geometry" />
        </mxCell>
        <mxCell id="I_5C5cWwlUB3rPTck1Bl-7" value="&lt;font size=&quot;1&quot; style=&quot;&quot;&gt;&lt;b style=&quot;font-size: 9px;&quot;&gt;i &amp;lt; jumlah&amp;nbsp;&lt;/b&gt;&lt;/font&gt;&lt;div&gt;&lt;font size=&quot;1&quot; style=&quot;&quot;&gt;&lt;b style=&quot;font-size: 9px;&quot;&gt;traces&lt;/b&gt;&lt;/font&gt;&lt;/div&gt;" style="rhombus;whiteSpace=wrap;html=1;" parent="1" vertex="1">
          <mxGeometry x="320" y="170" width="80" height="70" as="geometry" />
        </mxCell>
        <mxCell id="Wplj2ACgxhErMLeJOONX-12" style="edgeStyle=orthogonalEdgeStyle;rounded=0;orthogonalLoop=1;jettySize=auto;html=1;entryX=0.5;entryY=0;entryDx=0;entryDy=0;fontStyle=1" parent="1" source="I_5C5cWwlUB3rPTck1Bl-9" target="I_5C5cWwlUB3rPTck1Bl-11" edge="1">
          <mxGeometry relative="1" as="geometry" />
        </mxCell>
        <mxCell id="I_5C5cWwlUB3rPTck1Bl-9" value="&lt;font style=&quot;font-size: 8px;&quot;&gt;p &amp;lt; jumlah data&amp;nbsp;&lt;/font&gt;&lt;div&gt;&lt;font style=&quot;font-size: 8px;&quot;&gt;array&lt;/font&gt;&lt;/div&gt;" style="rhombus;whiteSpace=wrap;html=1;fontStyle=1" parent="1" vertex="1">
          <mxGeometry x="195" y="240" width="90" height="70" as="geometry" />
        </mxCell>
        <mxCell id="Wplj2ACgxhErMLeJOONX-8" value="" style="edgeStyle=orthogonalEdgeStyle;rounded=0;orthogonalLoop=1;jettySize=auto;html=1;fontStyle=1" parent="1" source="I_5C5cWwlUB3rPTck1Bl-11" target="I_5C5cWwlUB3rPTck1Bl-13" edge="1">
          <mxGeometry relative="1" as="geometry" />
        </mxCell>
        <mxCell id="I_5C5cWwlUB3rPTck1Bl-11" value="time shifting" style="rounded=0;whiteSpace=wrap;html=1;fontStyle=3" parent="1" vertex="1">
          <mxGeometry x="110" y="340" width="80" height="40" as="geometry" />
        </mxCell>
        <mxCell id="Wplj2ACgxhErMLeJOONX-9" value="" style="edgeStyle=orthogonalEdgeStyle;rounded=0;orthogonalLoop=1;jettySize=auto;html=1;fontStyle=1" parent="1" source="I_5C5cWwlUB3rPTck1Bl-13" target="I_5C5cWwlUB3rPTck1Bl-15" edge="1">
          <mxGeometry relative="1" as="geometry" />
        </mxCell>
        <mxCell id="I_5C5cWwlUB3rPTck1Bl-13" value="amplitude scaling" style="rounded=0;whiteSpace=wrap;html=1;fontStyle=3" parent="1" vertex="1">
          <mxGeometry x="230" y="340" width="80" height="40" as="geometry" />
        </mxCell>
        <mxCell id="Wplj2ACgxhErMLeJOONX-10" value="" style="edgeStyle=orthogonalEdgeStyle;rounded=0;orthogonalLoop=1;jettySize=auto;html=1;entryX=0.5;entryY=0;entryDx=0;entryDy=0;fontStyle=1" parent="1" source="I_5C5cWwlUB3rPTck1Bl-15" target="I_5C5cWwlUB3rPTck1Bl-18" edge="1">
          <mxGeometry relative="1" as="geometry" />
        </mxCell>
        <mxCell id="I_5C5cWwlUB3rPTck1Bl-15" value="&lt;span style=&quot;font-style: normal;&quot;&gt;p = p + 1&lt;/span&gt;" style="rounded=0;whiteSpace=wrap;html=1;fontStyle=3" parent="1" vertex="1">
          <mxGeometry x="345" y="340" width="80" height="40" as="geometry" />
        </mxCell>
        <mxCell id="I_5C5cWwlUB3rPTck1Bl-16" value="" style="edgeStyle=orthogonalEdgeStyle;rounded=0;orthogonalLoop=1;jettySize=auto;html=1;fontStyle=1" parent="1" source="I_5C5cWwlUB3rPTck1Bl-18" target="I_5C5cWwlUB3rPTck1Bl-20" edge="1">
          <mxGeometry relative="1" as="geometry" />
        </mxCell>
        <mxCell id="Wplj2ACgxhErMLeJOONX-11" style="edgeStyle=orthogonalEdgeStyle;rounded=0;orthogonalLoop=1;jettySize=auto;html=1;fontStyle=1" parent="1" source="I_5C5cWwlUB3rPTck1Bl-18" target="I_5C5cWwlUB3rPTck1Bl-9" edge="1">
          <mxGeometry relative="1" as="geometry">
            <Array as="points">
              <mxPoint x="460" y="460" />
              <mxPoint x="460" y="325" />
              <mxPoint x="240" y="325" />
            </Array>
          </mxGeometry>
        </mxCell>
        <mxCell id="I_5C5cWwlUB3rPTck1Bl-18" value="&lt;span style=&quot;font-size: 9px;&quot;&gt;p &amp;gt; jumlah&amp;nbsp;&lt;/span&gt;&lt;div style=&quot;font-size: 9px;&quot;&gt;&lt;span style=&quot;font-size: 9px;&quot;&gt;data&lt;/span&gt;&lt;div style=&quot;font-size: 9px;&quot;&gt;&lt;span style=&quot;font-size: 9px;&quot;&gt;array&lt;/span&gt;&lt;/div&gt;&lt;/div&gt;" style="rhombus;whiteSpace=wrap;html=1;fontStyle=1;fontSize=9;" parent="1" vertex="1">
          <mxGeometry x="340" y="420" width="90" height="80" as="geometry" />
        </mxCell>
        <mxCell id="I_5C5cWwlUB3rPTck1Bl-19" value="" style="edgeStyle=orthogonalEdgeStyle;rounded=0;orthogonalLoop=1;jettySize=auto;html=1;entryX=0.5;entryY=0;entryDx=0;entryDy=0;fontStyle=1" parent="1" source="I_5C5cWwlUB3rPTck1Bl-20" target="I_5C5cWwlUB3rPTck1Bl-23" edge="1">
          <mxGeometry relative="1" as="geometry">
            <Array as="points">
              <mxPoint x="144" y="420" />
            </Array>
          </mxGeometry>
        </mxCell>
        <mxCell id="I_5C5cWwlUB3rPTck1Bl-20" value="&lt;span style=&quot;font-style: normal;&quot;&gt;i = i + 1&lt;/span&gt;" style="rounded=0;whiteSpace=wrap;html=1;fontStyle=3" parent="1" vertex="1">
          <mxGeometry x="205" y="400" width="80" height="40" as="geometry" />
        </mxCell>
        <mxCell id="I_5C5cWwlUB3rPTck1Bl-21" value="" style="edgeStyle=orthogonalEdgeStyle;rounded=0;orthogonalLoop=1;jettySize=auto;html=1;fontStyle=1" parent="1" source="I_5C5cWwlUB3rPTck1Bl-23" target="I_5C5cWwlUB3rPTck1Bl-24" edge="1">
          <mxGeometry relative="1" as="geometry" />
        </mxCell>
        <mxCell id="I_5C5cWwlUB3rPTck1Bl-22" style="edgeStyle=orthogonalEdgeStyle;rounded=0;orthogonalLoop=1;jettySize=auto;html=1;entryX=1;entryY=0.5;entryDx=0;entryDy=0;exitX=1;exitY=0.5;exitDx=0;exitDy=0;fontStyle=1" parent="1" source="I_5C5cWwlUB3rPTck1Bl-23" target="I_5C5cWwlUB3rPTck1Bl-7" edge="1">
          <mxGeometry relative="1" as="geometry">
            <Array as="points">
              <mxPoint x="184" y="515" />
              <mxPoint x="520" y="515" />
              <mxPoint x="520" y="205" />
            </Array>
          </mxGeometry>
        </mxCell>
        <mxCell id="I_5C5cWwlUB3rPTck1Bl-23" value="&lt;span style=&quot;font-size: 8px;&quot;&gt;i &amp;gt; jumlah traces&lt;/span&gt;" style="rhombus;whiteSpace=wrap;html=1;fontStyle=1" parent="1" vertex="1">
          <mxGeometry x="104" y="436" width="80" height="70" as="geometry" />
        </mxCell>
        <mxCell id="I_5C5cWwlUB3rPTck1Bl-24" value="End" style="strokeWidth=1;html=1;shape=mxgraph.flowchart.terminator;whiteSpace=wrap;fontStyle=3" parent="1" vertex="1">
          <mxGeometry x="104" y="553" width="80" height="40" as="geometry" />
        </mxCell>
        <mxCell id="I_5C5cWwlUB3rPTck1Bl-25" value="" style="verticalLabelPosition=bottom;verticalAlign=top;html=1;shape=hexagon;perimeter=hexagonPerimeter2;arcSize=6;size=0.27;fontStyle=1" parent="1" vertex="1">
          <mxGeometry x="325" y="260" width="70" height="30" as="geometry" />
        </mxCell>
        <mxCell id="Wplj2ACgxhErMLeJOONX-6" value="" style="edgeStyle=orthogonalEdgeStyle;rounded=0;orthogonalLoop=1;jettySize=auto;html=1;fontStyle=1" parent="1" source="I_5C5cWwlUB3rPTck1Bl-27" target="I_5C5cWwlUB3rPTck1Bl-9" edge="1">
          <mxGeometry relative="1" as="geometry" />
        </mxCell>
        <mxCell id="I_5C5cWwlUB3rPTck1Bl-27" value="p = 0" style="text;html=1;align=center;verticalAlign=middle;whiteSpace=wrap;rounded=0;fontStyle=1" parent="1" vertex="1">
          <mxGeometry x="330" y="260" width="60" height="30" as="geometry" />
        </mxCell>
        <mxCell id="JHzjJ-x4bvw-8R5KEBvo-1" value="Tidak" style="text;html=1;align=center;verticalAlign=middle;whiteSpace=wrap;rounded=0;fontStyle=1" parent="1" vertex="1">
          <mxGeometry x="410" y="520" width="60" height="30" as="geometry" />
        </mxCell>
        <mxCell id="JHzjJ-x4bvw-8R5KEBvo-2" value="Ya" style="text;html=1;align=center;verticalAlign=middle;whiteSpace=wrap;rounded=0;fontStyle=1" parent="1" vertex="1">
          <mxGeometry x="95" y="511" width="60" height="30" as="geometry" />
        </mxCell>
        <mxCell id="JHzjJ-x4bvw-8R5KEBvo-3" value="Ya" style="text;html=1;align=center;verticalAlign=middle;whiteSpace=wrap;rounded=0;fontStyle=1" parent="1" vertex="1">
          <mxGeometry x="298" y="420" width="60" height="30" as="geometry" />
        </mxCell>
        <mxCell id="JHzjJ-x4bvw-8R5KEBvo-4" value="Tidak" style="text;html=1;align=center;verticalAlign=middle;whiteSpace=wrap;rounded=0;fontStyle=1" parent="1" vertex="1">
          <mxGeometry x="395" y="410" width="60" height="30" as="geometry" />
        </mxCell>
      </root>
    </mxGraphModel>
  </diagram>
</mxfile>
